<svg viewBox="0 0 23 23" xmlns="http://www.w3.org/2000/svg" xmlns:xlink="http://www.w3.org/1999/xlink" width="23.000000" height="23.000000" fill="none" customFrame="#000000">
	<path id="Vector" d="M23 11.5704C23 5.1801 17.8515 0 11.5014 0C5.14848 0.00143732 0 5.1801 0 11.5719C0 17.3456 4.2056 22.1319 9.70191 23L9.70191 14.9151L6.78415 14.9151L6.78415 11.5719L9.70479 11.5719L9.70479 9.02062C9.70479 6.12155 11.4224 4.52037 14.0484 4.52037C15.3075 4.52037 16.6226 4.74603 16.6226 4.74603L16.6226 7.59193L15.1724 7.59193C13.7451 7.59193 13.2995 8.4845 13.2995 9.40008L13.2995 11.5704L16.4875 11.5704L15.9787 14.9136L13.2981 14.9136L13.2981 22.9986C18.7944 22.1304 23 17.3441 23 11.5704Z" fill="rgb(35.0182,166.287,240.125)" fill-rule="evenodd" />
</svg>
