<svg viewBox="0 0 24.6667 18.6666" xmlns="http://www.w3.org/2000/svg" xmlns:xlink="http://www.w3.org/1999/xlink" width="24.666687" height="18.666626" fill="none" customFrame="#000000">
	<path id="Vector" d="M23.1251 18.6668C23.1251 18.6668 24.6667 18.6668 24.6667 17.1112C24.6667 15.5557 23.1251 10.889 16.9584 10.889C10.7917 10.889 9.25006 15.5557 9.25006 17.1112C9.25006 18.6668 10.7917 18.6668 10.7917 18.6668L23.1251 18.6668ZM10.8256 17.1112L23.0911 17.1112C23.0984 17.1104 23.1056 17.1093 23.1127 17.1081L23.1251 17.105C23.122 16.6943 22.8676 15.5028 21.9534 14.4295C21.1024 13.423 19.607 12.4446 16.9584 12.4446C14.3114 12.4446 12.8159 13.4246 11.9634 14.4295C11.0492 15.5028 10.7933 16.6959 10.7917 17.105C10.803 17.1072 10.8143 17.1093 10.8256 17.1112ZM16.9584 7.7779C17.7761 7.7779 18.5604 7.45012 19.1386 6.86668C19.7169 6.28323 20.0417 5.49191 20.0417 4.66679C20.0417 3.84167 19.7169 3.05035 19.1386 2.4669C18.5604 1.88345 17.7761 1.55568 16.9584 1.55568C16.1406 1.55568 15.3564 1.88345 14.7781 2.4669C14.1999 3.05035 13.8751 3.84167 13.8751 4.66679C13.8751 5.49191 14.1999 6.28323 14.7781 6.86668C15.3564 7.45012 16.1406 7.7779 16.9584 7.7779ZM21.5834 4.66679C21.5834 5.27962 21.4638 5.88646 21.2313 6.45264C20.9989 7.01883 20.6582 7.53328 20.2288 7.96662C19.7993 8.39996 19.2894 8.7437 18.7283 8.97823C18.1672 9.21275 17.5658 9.33346 16.9584 9.33346C16.351 9.33346 15.7496 9.21275 15.1885 8.97823C14.6274 8.7437 14.1175 8.39996 13.688 7.96662C13.2586 7.53328 12.9179 7.01883 12.6854 6.45264C12.453 5.88646 12.3334 5.27962 12.3334 4.66679C12.3334 3.42911 12.8207 2.24213 13.688 1.36696C14.5554 0.491787 15.7318 0.00012207 16.9584 0.00012207C18.185 0.00012207 19.3614 0.491787 20.2288 1.36696C21.0961 2.24213 21.5834 3.42911 21.5834 4.66679ZM10.6931 11.3246C10.0764 11.1286 9.44066 10.9998 8.79681 10.9403C8.43503 10.9056 8.07181 10.8885 7.70839 10.889C1.54173 10.889 6.10352e-05 15.5557 6.10352e-05 17.1112C6.10352e-05 18.1488 0.513436 18.6668 1.54173 18.6668L8.04139 18.6668C7.81285 18.1812 7.69887 17.6487 7.70839 17.1112C7.70839 15.5401 8.2896 13.9348 9.38881 12.5939C9.76344 12.1366 10.1997 11.7088 10.6931 11.3246ZM7.58506 12.4446C5.01356 12.4757 3.5536 13.4401 2.71339 14.4295C1.79302 15.509 1.54173 16.7052 1.54173 17.1112L6.16673 17.1112C6.16673 15.4857 6.66469 13.8663 7.58506 12.4446ZM2.31256 5.44457C2.31256 4.20689 2.79984 3.0199 3.66719 2.14473C4.53455 1.26957 5.71093 0.7779 6.93756 0.7779C8.16419 0.7779 9.34057 1.26957 10.2079 2.14473C11.0753 3.0199 11.5626 4.20689 11.5626 5.44457C11.5626 6.68224 11.0753 7.86923 10.2079 8.7444C9.34057 9.61957 8.16419 10.1112 6.93756 10.1112C5.71093 10.1112 4.53455 9.61957 3.66719 8.7444C2.79984 7.86923 2.31256 6.68224 2.31256 5.44457ZM6.93756 2.33346C6.11981 2.33346 5.33555 2.66123 4.75731 3.24468C4.17908 3.82812 3.85423 4.61945 3.85423 5.44457C3.85423 6.26968 4.17908 7.06101 4.75731 7.64445C5.33555 8.2279 6.11981 8.55568 6.93756 8.55568C7.75531 8.55568 8.53957 8.2279 9.11781 7.64445C9.69604 7.06101 10.0209 6.26968 10.0209 5.44457C10.0209 4.61945 9.69604 3.82812 9.11781 3.24468C8.53957 2.66123 7.75531 2.33346 6.93756 2.33346Z" fill="rgb(35.0182,166.287,240.125)" fill-rule="evenodd" />
</svg>
