<svg viewBox="0 0 18.3446 18.3472" xmlns="http://www.w3.org/2000/svg" xmlns:xlink="http://www.w3.org/1999/xlink" width="18.344604" height="18.347168" fill="none" customFrame="#000000">
	<path id="Vector" d="M18.296 6.58663C18.2384 6.41682 18.1323 6.26761 17.9908 6.15742C17.8493 6.04723 17.6786 5.98089 17.4999 5.96658L12.2707 5.55107L10.0079 0.542056C9.93584 0.380725 9.81863 0.243699 9.67041 0.147514C9.52219 0.0513295 9.3493 9.71158e-05 9.1726 1.37932e-07C8.99591 -9.684e-05 8.82296 0.0509458 8.67464 0.146968C8.52631 0.24299 8.40895 0.379887 8.3367 0.541138L6.07389 5.55107L0.844736 5.96658C0.669044 5.9805 0.501083 6.04474 0.360945 6.15161C0.220807 6.25849 0.114427 6.40348 0.0545322 6.56923C-0.005363 6.73498 -0.0162373 6.91448 0.0232103 7.08625C0.0626579 7.25802 0.150757 7.41479 0.276968 7.5378L4.14127 11.3049L2.7746 17.2229C2.7331 17.402 2.7464 17.5895 2.81277 17.761C2.87914 17.9324 2.99552 18.08 3.14681 18.1845C3.2981 18.2891 3.47731 18.3457 3.66118 18.3471C3.84505 18.3485 4.0251 18.2946 4.17796 18.1924L9.17231 14.8628L14.1666 18.1924C14.3229 18.2961 14.5071 18.3495 14.6946 18.3454C14.8821 18.3413 15.0639 18.2799 15.2154 18.1694C15.3669 18.0589 15.481 17.9047 15.5423 17.7274C15.6035 17.5502 15.6091 17.3584 15.5581 17.1779L13.8805 11.3076L18.041 7.56348C18.3135 7.31766 18.4134 6.93426 18.296 6.58663Z" fill="rgb(243,204.6,3)" fill-rule="nonzero" />
</svg>
