<svg viewBox="0 0 18.3446 18.3483" xmlns="http://www.w3.org/2000/svg" xmlns:xlink="http://www.w3.org/1999/xlink" width="18.344604" height="18.348267" fill="none" customFrame="#000000">
	<path id="Vector" d="M4.14231 11.3044L2.77564 17.2224C2.73332 17.4016 2.74602 17.5894 2.81209 17.7613C2.87816 17.9331 2.99453 18.0811 3.14599 18.1858C3.29745 18.2905 3.47696 18.3471 3.66109 18.3482C3.84522 18.3493 4.02539 18.2948 4.17809 18.1919L9.17243 14.8624L14.1668 18.1919C14.323 18.2957 14.5073 18.3491 14.6948 18.345C14.8822 18.3408 15.064 18.2794 15.2155 18.1689C15.3671 18.0584 15.4811 17.9042 15.5424 17.727C15.6037 17.5497 15.6092 17.358 15.5582 17.1775L13.8806 11.3072L18.0412 7.56302C18.1744 7.44304 18.2696 7.28663 18.3149 7.11313C18.3602 6.93964 18.3536 6.75667 18.2961 6.58685C18.2385 6.41703 18.1324 6.26782 17.9909 6.15766C17.8494 6.0475 17.6787 5.98123 17.5 5.96704L12.2708 5.55061L10.008 0.541597C9.93587 0.380306 9.81858 0.243344 9.67031 0.147241C9.52204 0.0511377 9.34912 0 9.17243 0C8.99573 0 8.82281 0.0511377 8.67454 0.147241C8.52627 0.243344 8.40898 0.380306 8.33683 0.541597L6.07401 5.55061L0.844858 5.96612C0.669167 5.98004 0.501205 6.04428 0.361067 6.15115C0.220929 6.25803 0.114549 6.40302 0.0546543 6.56877C-0.00524093 6.73452 -0.0161153 6.91402 0.0233324 7.08579C0.06278 7.25756 0.150879 7.41433 0.27709 7.53734L4.14231 11.3044ZM6.75918 7.33647C6.92291 7.32357 7.08014 7.26686 7.21441 7.1723C7.34868 7.07773 7.45503 6.94878 7.52232 6.79897L9.17243 3.14746L10.8225 6.79897C10.8898 6.94878 10.9962 7.07773 11.1304 7.1723C11.2647 7.26686 11.4219 7.32357 11.5857 7.33647L15.2289 7.6254L12.2287 10.3257C11.9682 10.5605 11.8645 10.9219 11.9599 11.2595L13.1092 15.2815L9.68241 12.9967C9.532 12.8958 9.35495 12.8419 9.1738 12.8419C8.99266 12.8419 8.81561 12.8958 8.6652 12.9967L5.08431 15.3843L6.04741 11.2145C6.08272 11.0612 6.07798 10.9013 6.03365 10.7503C5.98931 10.5993 5.90687 10.4623 5.79425 10.3523L3.0077 7.63548L6.75918 7.33647Z" fill="rgb(243,204.6,3)" fill-rule="nonzero" />
</svg>
