<svg aria-hidden="true" style="position: absolute; width: 0; height: 0; overflow: hidden;" version="1.1" xmlns="http://www.w3.org/2000/svg" xmlns:xlink="http://www.w3.org/1999/xlink">
   <defs>
      <symbol id="icon-arrow" viewBox="0 0 38 32">
         <path d="M0 16c0-0.606 0.253-1.187 0.703-1.616s1.060-0.669 1.697-0.669h27.803l-10.304-9.809c-0.451-0.429-0.704-1.011-0.704-1.618s0.253-1.189 0.704-1.618c0.451-0.429 1.062-0.67 1.699-0.67s1.248 0.241 1.699 0.67l14.398 13.712c0.223 0.212 0.401 0.464 0.522 0.742s0.183 0.575 0.183 0.876-0.062 0.598-0.183 0.876c-0.121 0.278-0.298 0.53-0.522 0.742l-14.398 13.712c-0.451 0.429-1.062 0.67-1.699 0.67s-1.248-0.241-1.699-0.67c-0.451-0.429-0.704-1.011-0.704-1.618s0.253-1.189 0.704-1.618l10.304-9.808h-27.803c-0.636 0-1.247-0.241-1.697-0.669s-0.703-1.010-0.703-1.616z"></path>
      </symbol>
      <symbol id="icon-basket" viewBox="0 0 42 32">
         <path d="M40.726 7.273h-32.261l-1.193-6.109c-0.068-0.334-0.251-0.633-0.517-0.845s-0.598-0.325-0.938-0.318h-5.818v2.909h4.625l5.556 27.927c0.068 0.333 0.251 0.633 0.517 0.845s0.598 0.325 0.938 0.319h26.181v-2.909h-24.989l-1.193-5.818h26.181c0.336 0.008 0.665-0.1 0.93-0.307s0.451-0.499 0.524-0.827l2.909-13.091c0.049-0.216 0.048-0.44-0.003-0.655s-0.15-0.416-0.291-0.587c-0.14-0.171-0.318-0.308-0.519-0.4s-0.421-0.137-0.642-0.132zM36.654 20.364h-25.57l-2.036-10.182h29.861l-2.255 10.182z"></path>
      </symbol>
      <symbol id="icon-check" viewBox="0 0 46 32">
         <path d="M45.409 0.588c0.186 0.186 0.334 0.406 0.435 0.649s0.153 0.503 0.153 0.766c0 0.263-0.052 0.523-0.153 0.766s-0.249 0.464-0.435 0.649l-27.994 27.994c-0.186 0.186-0.406 0.334-0.649 0.435s-0.503 0.153-0.766 0.153-0.523-0.052-0.766-0.153c-0.243-0.101-0.464-0.248-0.649-0.435l-13.997-13.997c-0.375-0.375-0.586-0.885-0.586-1.416s0.211-1.040 0.586-1.416c0.375-0.375 0.885-0.586 1.416-0.586s1.040 0.211 1.416 0.586l12.581 12.585 26.578-26.582c0.186-0.186 0.407-0.334 0.649-0.435s0.503-0.153 0.766-0.153c0.263 0 0.523 0.052 0.766 0.153s0.463 0.249 0.649 0.435z"></path>
      </symbol>
      <symbol id="icon-fb" viewBox="0 0 32 32">
         <path d="M32 16.098c0-8.891-7.163-16.098-15.998-16.098-8.839 0.002-16.002 7.207-16.002 16.1 0 8.033 5.851 14.692 13.498 15.9v-11.249h-4.059v-4.651h4.064v-3.55c0-4.034 2.39-6.261 6.043-6.261 1.752 0 3.581 0.314 3.581 0.314v3.96h-2.018c-1.986 0-2.606 1.242-2.606 2.516v3.020h4.435l-0.708 4.651h-3.73v11.249c7.647-1.208 13.498-7.867 13.498-15.9z"></path>
      </symbol>
      <symbol id="icon-instagram" viewBox="0 0 32 32">
         <path d="M16 0c-4.342 0-4.888 0.020-6.594 0.096-1.706 0.080-2.868 0.348-3.886 0.744-1.068 0.402-2.035 1.032-2.834 1.846-0.814 0.799-1.444 1.766-1.846 2.834-0.396 1.016-0.666 2.18-0.744 3.88-0.076 1.71-0.096 2.254-0.096 6.602 0 4.344 0.020 4.888 0.096 6.594 0.080 1.704 0.348 2.866 0.744 3.884 0.41 1.052 0.956 1.944 1.846 2.834 0.888 0.89 1.78 1.438 2.832 1.846 1.020 0.396 2.18 0.666 3.884 0.744 1.708 0.076 2.252 0.096 6.598 0.096s4.888-0.020 6.596-0.096c1.702-0.080 2.868-0.348 3.886-0.744 1.067-0.402 2.034-1.032 2.832-1.846 0.89-0.89 1.436-1.782 1.846-2.834 0.394-1.018 0.664-2.18 0.744-3.884 0.076-1.706 0.096-2.25 0.096-6.596s-0.020-4.89-0.096-6.598c-0.080-1.702-0.35-2.866-0.744-3.882-0.402-1.068-1.032-2.035-1.846-2.834-0.799-0.815-1.766-1.445-2.834-1.846-1.020-0.396-2.184-0.666-3.886-0.744-1.708-0.076-2.25-0.096-6.598-0.096h0.004zM14.566 2.884h1.436c4.272 0 4.778 0.014 6.464 0.092 1.56 0.070 2.408 0.332 2.972 0.55 0.746 0.29 1.28 0.638 1.84 1.198s0.906 1.092 1.196 1.84c0.22 0.562 0.48 1.41 0.55 2.97 0.078 1.686 0.094 2.192 0.094 6.462s-0.016 4.778-0.094 6.464c-0.070 1.56-0.332 2.406-0.55 2.97-0.257 0.695-0.666 1.323-1.198 1.838-0.56 0.56-1.092 0.906-1.84 1.196-0.56 0.22-1.408 0.48-2.97 0.552-1.686 0.076-2.192 0.094-6.464 0.094s-4.78-0.018-6.466-0.094c-1.56-0.072-2.406-0.332-2.97-0.552-0.695-0.256-1.324-0.665-1.84-1.196-0.532-0.516-0.943-1.145-1.2-1.84-0.218-0.562-0.48-1.41-0.55-2.97-0.076-1.686-0.092-2.192-0.092-6.466 0-4.272 0.016-4.776 0.092-6.462 0.072-1.56 0.332-2.408 0.552-2.972 0.29-0.746 0.638-1.28 1.198-1.84s1.092-0.906 1.84-1.196c0.564-0.22 1.41-0.48 2.97-0.552 1.476-0.068 2.048-0.088 5.030-0.090v0.004zM24.542 5.54c-0.252 0-0.502 0.050-0.735 0.146s-0.445 0.238-0.623 0.416c-0.178 0.178-0.32 0.39-0.416 0.623s-0.146 0.483-0.146 0.735c0 0.252 0.050 0.502 0.146 0.735s0.238 0.445 0.416 0.623c0.178 0.178 0.39 0.32 0.623 0.416s0.483 0.146 0.735 0.146c0.509 0 0.998-0.202 1.358-0.562s0.562-0.848 0.562-1.358-0.202-0.998-0.562-1.358c-0.36-0.36-0.848-0.562-1.358-0.562zM16.002 7.784c-1.090-0.017-2.172 0.183-3.184 0.588s-1.933 1.008-2.71 1.773c-0.777 0.765-1.394 1.676-1.815 2.682s-0.638 2.084-0.638 3.174c0 1.090 0.217 2.169 0.638 3.174s1.038 1.917 1.815 2.682c0.777 0.765 1.698 1.367 2.71 1.773s2.094 0.605 3.184 0.588c2.157-0.034 4.214-0.914 5.728-2.451s2.362-3.608 2.362-5.766-0.848-4.228-2.362-5.765c-1.513-1.537-3.571-2.418-5.728-2.451zM16.002 10.666c1.415 0 2.771 0.562 3.772 1.562s1.562 2.357 1.562 3.772c0 1.415-0.562 2.771-1.562 3.772s-2.357 1.562-3.772 1.562-2.771-0.562-3.772-1.562c-1-1-1.562-2.357-1.562-3.772s0.562-2.771 1.562-3.772c1-1 2.357-1.562 3.772-1.562z"></path>
      </symbol>
      <symbol id="icon-people" viewBox="0 0 42 32">
         <path d="M39.643 32c0 0 2.643 0 2.643-2.667s-2.643-10.667-13.214-10.667-13.214 8-13.214 10.667c0 2.667 2.643 2.667 2.643 2.667h21.143zM18.558 29.334h21.027c0.013-0.001 0.025-0.003 0.037-0.005l0.021-0.005c-0.005-0.704-0.441-2.747-2.009-4.587-1.459-1.725-4.022-3.403-8.563-3.403-4.538 0-7.101 1.68-8.563 3.403-1.567 1.84-2.006 3.885-2.009 4.587 0.019 0.004 0.039 0.007 0.058 0.011zM29.072 13.334c1.402 0 2.746-0.562 3.738-1.562s1.548-2.357 1.548-3.771-0.557-2.771-1.548-3.771c-0.991-1-2.336-1.562-3.738-1.562s-2.746 0.562-3.738 1.562c-0.991 1-1.548 2.357-1.548 3.771s0.557 2.771 1.548 3.771c0.991 1 2.336 1.562 3.738 1.562zM37 8c0 1.051-0.205 2.091-0.604 3.061s-0.982 1.853-1.719 2.595c-0.736 0.743-1.61 1.332-2.572 1.734s-1.993 0.609-3.034 0.609c-1.041 0-2.072-0.207-3.034-0.609s-1.836-0.991-2.572-1.734c-0.736-0.743-1.32-1.625-1.719-2.595s-0.603-2.011-0.603-3.061c0-2.122 0.835-4.157 2.322-5.657s3.504-2.343 5.606-2.343 4.119 0.843 5.606 2.343c1.487 1.5 2.322 3.535 2.322 5.657zM18.331 19.414c-1.057-0.336-2.147-0.557-3.251-0.659-0.62-0.059-1.243-0.089-1.866-0.088-10.571 0-13.214 8-13.214 10.667 0 1.779 0.88 2.667 2.643 2.667h11.142c-0.392-0.832-0.587-1.745-0.571-2.667 0-2.693 0.996-5.445 2.881-7.744 0.642-0.784 1.39-1.517 2.236-2.176zM13.003 21.334c-4.408 0.053-6.911 1.707-8.351 3.403-1.578 1.851-2.009 3.901-2.009 4.597h7.929c0-2.787 0.854-5.563 2.431-8zM3.964 9.334c0-2.122 0.835-4.157 2.322-5.657s3.504-2.343 5.606-2.343c2.103 0 4.119 0.843 5.606 2.343s2.322 3.535 2.322 5.657-0.835 4.157-2.322 5.657c-1.487 1.5-3.503 2.343-5.606 2.343s-4.119-0.843-5.606-2.343c-1.487-1.5-2.322-3.535-2.322-5.657zM11.893 4c-1.402 0-2.746 0.562-3.738 1.562s-1.548 2.357-1.548 3.771c0 1.414 0.557 2.771 1.548 3.771s2.336 1.562 3.738 1.562c1.402 0 2.746-0.562 3.738-1.562s1.548-2.357 1.548-3.771c0-1.415-0.557-2.771-1.548-3.771s-2.336-1.562-3.738-1.562z"></path>
      </symbol>
      <symbol id="icon-search" viewBox="0 0 32 32">
         <path d="M22.921 20.638l8.608 8.608c0.303 0.303 0.472 0.713 0.472 1.141s-0.17 0.838-0.473 1.141-0.713 0.472-1.141 0.472c-0.428-0-0.838-0.17-1.141-0.473l-8.608-8.608c-2.573 1.993-5.809 2.931-9.049 2.623s-6.241-1.839-8.393-4.281c-2.152-2.442-3.292-5.612-3.189-8.866s1.441-6.345 3.743-8.646 5.393-3.64 8.646-3.743c3.253-0.103 6.423 1.038 8.866 3.189s3.973 5.153 4.281 8.393c0.308 3.24-0.63 6.476-2.623 9.049h0.002zM12.801 22.399c2.546 0 4.988-1.011 6.788-2.812s2.812-4.242 2.812-6.788c0-2.546-1.011-4.988-2.812-6.788s-4.242-2.812-6.788-2.812c-2.546 0-4.988 1.011-6.788 2.812s-2.812 4.242-2.812 6.788c0 2.546 1.011 4.988 2.812 6.788s4.242 2.812 6.788 2.812z"></path>
      </symbol>
      <symbol id="icon-shevron" viewBox="0 0 56 32">
         <path d="M8 0l20 20 20-20 8 4-28 28-28-28 8-4z"></path>
      </symbol>
      <symbol id="icon-star-empty" viewBox="0 0 32 32">
         <path d="M7.224 19.715l-2.384 10.321c-0.074 0.313-0.052 0.64 0.064 0.94s0.318 0.558 0.582 0.74 0.577 0.281 0.898 0.283c0.321 0.002 0.635-0.093 0.902-0.273l8.71-5.807 8.71 5.807c0.272 0.181 0.594 0.274 0.921 0.267s0.644-0.114 0.908-0.307c0.264-0.193 0.463-0.462 0.57-0.771s0.116-0.644 0.028-0.958l-2.926-10.238 7.256-6.53c0.232-0.209 0.398-0.482 0.477-0.785s0.067-0.622-0.033-0.918c-0.1-0.296-0.285-0.556-0.532-0.749s-0.544-0.308-0.856-0.332l-9.12-0.726-3.946-8.736c-0.126-0.281-0.33-0.52-0.589-0.688s-0.56-0.257-0.868-0.257c-0.308 0-0.61 0.089-0.868 0.257s-0.463 0.406-0.589 0.688l-3.946 8.736-9.12 0.725c-0.306 0.024-0.599 0.136-0.844 0.323s-0.43 0.439-0.534 0.728c-0.104 0.289-0.123 0.602-0.055 0.902s0.222 0.573 0.443 0.788l6.741 6.57zM11.788 12.795c0.286-0.023 0.56-0.121 0.794-0.286s0.42-0.39 0.537-0.651l2.878-6.368 2.878 6.368c0.117 0.261 0.303 0.486 0.537 0.651s0.508 0.264 0.794 0.286l6.354 0.504-5.232 4.709c-0.454 0.41-0.635 1.040-0.469 1.629l2.004 7.015-5.976-3.985c-0.262-0.176-0.571-0.27-0.887-0.27s-0.625 0.094-0.887 0.27l-6.245 4.164 1.68-7.272c0.062-0.267 0.053-0.546-0.024-0.81s-0.221-0.502-0.418-0.694l-4.86-4.738 6.543-0.521z"></path>
      </symbol>
      <symbol id="icon-star-full" viewBox="0 0 32 32">
         <path d="M31.911 11.488c-0.1-0.296-0.285-0.556-0.532-0.749s-0.545-0.308-0.856-0.333l-9.12-0.725-3.947-8.736c-0.126-0.281-0.33-0.52-0.589-0.688s-0.56-0.257-0.868-0.257c-0.308-0-0.61 0.089-0.869 0.256s-0.463 0.406-0.589 0.688l-3.947 8.738-9.12 0.725c-0.306 0.024-0.599 0.136-0.844 0.323s-0.43 0.439-0.534 0.728c-0.104 0.289-0.123 0.602-0.055 0.902s0.222 0.573 0.443 0.788l6.74 6.57-2.384 10.322c-0.072 0.312-0.049 0.639 0.067 0.939s0.319 0.556 0.583 0.739c0.264 0.182 0.576 0.281 0.897 0.284s0.635-0.092 0.901-0.27l8.711-5.807 8.711 5.807c0.273 0.181 0.594 0.274 0.921 0.267s0.644-0.114 0.908-0.307c0.264-0.193 0.463-0.462 0.57-0.771s0.116-0.644 0.028-0.958l-2.926-10.239 7.256-6.53c0.475-0.429 0.65-1.097 0.445-1.704z"></path>
      </symbol>
      <symbol id="icon-twitter" viewBox="0 0 39 32">
         <path d="M12.286 32c14.76 0 22.834-12.315 22.834-22.975 0-0.345 0-0.694-0.015-1.039 1.572-1.146 2.929-2.564 4.006-4.189-1.468 0.652-3.024 1.082-4.618 1.275 1.678-1.010 2.935-2.599 3.537-4.472-1.577 0.941-3.303 1.601-5.102 1.952-1.209-1.297-2.81-2.156-4.554-2.445s-3.533 0.010-5.091 0.85c-1.558 0.839-2.798 2.173-3.527 3.793s-0.908 3.438-0.507 5.171c-3.191-0.161-6.312-0.996-9.162-2.45s-5.364-3.495-7.38-5.99c-1.023 1.78-1.336 3.885-0.874 5.888s1.664 3.754 3.362 4.898c-1.272-0.044-2.517-0.388-3.632-1.004v0.111c0.002 1.864 0.644 3.671 1.816 5.114s2.803 2.435 4.618 2.807c-0.689 0.191-1.4 0.286-2.114 0.283-0.504 0.002-1.006-0.045-1.501-0.14 0.513 1.605 1.511 3.008 2.856 4.013s2.967 1.561 4.641 1.591c-2.844 2.249-6.357 3.469-9.973 3.463-0.637 0.003-1.274-0.034-1.907-0.111 3.67 2.356 7.933 3.607 12.286 3.606z"></path>
      </symbol>
      <symbol id="icon-chevron-right" viewBox="0 0 32 32">
         <path d="M12.943 7.057c-0.521-0.521-1.365-0.521-1.886 0s-0.521 1.365 0 1.886l7.057 7.057-7.057 7.057c-0.521 0.521-0.521 1.365 0 1.886s1.365 0.521 1.886 0l8-8c0.521-0.521 0.521-1.365 0-1.886l-8-8z"></path>
      </symbol>
   </defs>
</svg>
